<svg width="40" height="40" viewBox="0 0 40 40" fill="none" xmlns="http://www.w3.org/2000/svg">
  <defs>
    <linearGradient id="landGradient" x1="0%" y1="0%" x2="100%" y2="100%">
      <stop offset="0%" style="stop-color:#f97316;stop-opacity:1" />
      <stop offset="100%" style="stop-color:#10b981;stop-opacity:1" />
    </linearGradient>
  </defs>
  
  <!-- Base terrain shape -->
  <path d="M5 25 L10 20 L15 22 L20 15 L25 18 L30 12 L35 16 L35 35 L5 35 Z" 
        fill="url(#landGradient)" 
        opacity="0.2"/>
  
  <!-- Front terrain with gradient -->
  <path d="M5 28 L10 23 L15 25 L20 18 L25 21 L30 15 L35 19 L35 35 L5 35 Z" 
        fill="url(#landGradient)"/>
  
  <!-- Plot boundary lines -->
  <path d="M12 8 L12 28" 
        stroke="url(#landGradient)" 
        stroke-width="1.5" 
        stroke-linecap="round"
        opacity="0.8"/>
  <path d="M28 8 L28 28" 
        stroke="url(#landGradient)" 
        stroke-width="1.5" 
        stroke-linecap="round"
        opacity="0.8"/>
  <path d="M8 12 L32 12" 
        stroke="url(#landGradient)" 
        stroke-width="1.5" 
        stroke-linecap="round"
        opacity="0.8"/>
  
  <!-- Corner markers -->
  <circle cx="12" cy="12" r="2" fill="#f97316"/>
  <circle cx="28" cy="12" r="2" fill="#10b981"/>
  
  <!-- Survey marker pin -->
  <path d="M20 5 L20 15 M18 7 L22 7" 
        stroke="#f97316" 
        stroke-width="2" 
        stroke-linecap="round"/>
  <circle cx="20" cy="5" r="1.5" fill="#f97316"/>
</svg>
